M48
; DRILL file {KiCad 7.0.2} date Mon May 29 20:24:41 2023
; FORMAT={-:-/ absolute / inch / decimal}
; #@! TF.CreationDate,2023-05-29T20:24:41+05:30
; #@! TF.GenerationSoftware,Kicad,Pcbnew,7.0.2
; #@! TF.FileFunction,Plated,1,4,PTH
FMAT,2
INCH
; #@! TA.AperFunction,Plated,PTH,ViaDrill
T1C0.0157
; #@! TA.AperFunction,Plated,PTH,ComponentDrill
T2C0.0177
; #@! TA.AperFunction,Plated,PTH,ComponentDrill
T3C0.0197
; #@! TA.AperFunction,Plated,PTH,ComponentDrill
T4C0.0236
; #@! TA.AperFunction,Plated,PTH,ComponentDrill
T5C0.0472
; #@! TA.AperFunction,Plated,PTH,ComponentDrill
T6C0.1693
%
G90
G05
T1
X7.4129Y-3.1248
X7.4731Y-2.6494
X7.4739Y-2.8285
X7.4798Y-3.2301
X7.4798Y-3.288
X7.5083Y-2.9358
X7.5615Y-3.3394
X7.5768Y-3.0289
X7.5881Y-3.1632
X7.607Y-2.9742
X7.6077Y-2.9319
X7.6353Y-2.7744
X7.6363Y-3.1632
X7.6963Y-2.7746
X7.778Y-3.426
X7.7849Y-2.7813
X7.844Y-2.699
X7.844Y-3.4545
X7.8479Y-2.8098
X7.9719Y-3.0136
X8.0006Y-2.7273
X8.0703Y-2.6297
X8.1392Y-3.3986
X8.1835Y-3.4467
X8.1875Y-2.8522
X8.2022Y-3.3719
X8.2042Y-2.1848
X8.2148Y-2.9152
X8.2662Y-2.8965
X8.3016Y-2.1868
X8.3518Y-2.1868
X8.3696Y-3.5648
X8.3696Y-3.614
X8.405Y-2.1868
X8.407Y-3.7272
X8.407Y-3.8354
X8.4837Y-3.7272
X8.4837Y-3.8354
X8.4987Y-3.5648
X8.4987Y-3.614
X8.5979Y-3.6957
X8.5999Y-3.302
X8.5999Y-3.7606
X8.5999Y-3.8098
X8.6009Y-3.8699
X8.6018Y-3.3492
X8.6269Y-2.364
X8.6284Y-2.4437
X8.7003Y-3.6809
X8.7013Y-3.6425
X8.7741Y-3.3807
X8.8184Y-3.7222
X8.8479Y-3.2222
X8.8509Y-3.3787
X8.8784Y-3.4407
X8.902Y-3.2222
X8.9079Y-2.7065
X8.9119Y-3.4732
X8.9621Y-3.5913
X8.9955Y-3.6238
X8.9985Y-2.7065
X8.9995Y-2.6701
X9.0359Y-2.672
X9.0369Y-2.7075
T3
X7.8292Y-2.4309
X7.8784Y-2.4309
X7.8932Y-3.8108
X7.9276Y-2.4309
X7.9424Y-3.8108
X7.9768Y-2.4309
X7.9916Y-3.8108
X8.0408Y-3.8108
T4
X7.3331Y-2.364
X7.3331Y-3.9191
X7.3703Y-2.2742
X7.3703Y-2.4538
X7.3703Y-3.8293
X7.3703Y-4.0089
X7.4601Y-2.237
X7.4601Y-2.4909
X7.4601Y-3.7921
X7.4601Y-4.0461
X7.5499Y-2.2742
X7.5499Y-2.4538
X7.5499Y-3.8293
X7.5499Y-4.0089
X7.5871Y-2.364
X7.5871Y-3.9191
X8.9276Y-2.364
X8.9276Y-3.9191
X8.9648Y-2.2742
X8.9648Y-2.4538
X8.9648Y-3.8293
X8.9648Y-4.0089
X9.0546Y-2.237
X9.0546Y-2.4909
X9.0546Y-3.7921
X9.0546Y-4.0461
X9.1444Y-2.2742
X9.1444Y-2.4538
X9.1444Y-3.8293
X9.1444Y-4.0089
X9.1816Y-2.364
X9.1816Y-3.9191
T5
X9.0763Y-3.3384
X9.0763Y-3.4762
T6
X7.4601Y-2.364
X7.4601Y-3.9191
X9.0546Y-2.364
X9.0546Y-3.9191
T2
G00X9.1717Y-2.6346
M15
G01X9.2032Y-2.6346
M16
G05
G00X9.2032Y-2.9161
M15
G01X9.1717Y-2.9161
M16
G05
T0
M30
