%TF.GenerationSoftware,KiCad,Pcbnew,7.0.2*%
%TF.CreationDate,2023-05-29T20:24:48+05:30*%
%TF.ProjectId,STM_32_Board,53544d5f-3332-45f4-926f-6172642e6b69,rev?*%
%TF.SameCoordinates,Original*%
%TF.FileFunction,Paste,Top*%
%TF.FilePolarity,Positive*%
%FSLAX46Y46*%
G04 Gerber Fmt 4.6, Leading zero omitted, Abs format (unit mm)*
G04 Created by KiCad (PCBNEW 7.0.2) date 2023-05-29 20:24:48*
%MOMM*%
%LPD*%
G01*
G04 APERTURE LIST*
G04 Aperture macros list*
%AMRoundRect*
0 Rectangle with rounded corners*
0 $1 Rounding radius*
0 $2 $3 $4 $5 $6 $7 $8 $9 X,Y pos of 4 corners*
0 Add a 4 corners polygon primitive as box body*
4,1,4,$2,$3,$4,$5,$6,$7,$8,$9,$2,$3,0*
0 Add four circle primitives for the rounded corners*
1,1,$1+$1,$2,$3*
1,1,$1+$1,$4,$5*
1,1,$1+$1,$6,$7*
1,1,$1+$1,$8,$9*
0 Add four rect primitives between the rounded corners*
20,1,$1+$1,$2,$3,$4,$5,0*
20,1,$1+$1,$4,$5,$6,$7,0*
20,1,$1+$1,$6,$7,$8,$9,0*
20,1,$1+$1,$8,$9,$2,$3,0*%
G04 Aperture macros list end*
%ADD10RoundRect,0.140000X-0.140000X-0.170000X0.140000X-0.170000X0.140000X0.170000X-0.140000X0.170000X0*%
%ADD11RoundRect,0.150000X0.150000X-0.512500X0.150000X0.512500X-0.150000X0.512500X-0.150000X-0.512500X0*%
%ADD12RoundRect,0.250000X0.375000X0.625000X-0.375000X0.625000X-0.375000X-0.625000X0.375000X-0.625000X0*%
%ADD13RoundRect,0.147500X-0.147500X-0.172500X0.147500X-0.172500X0.147500X0.172500X-0.147500X0.172500X0*%
%ADD14R,0.740000X2.400000*%
%ADD15RoundRect,0.135000X-0.135000X-0.185000X0.135000X-0.185000X0.135000X0.185000X-0.135000X0.185000X0*%
%ADD16R,0.800000X1.000000*%
%ADD17R,1.500000X0.700000*%
%ADD18RoundRect,0.218750X0.218750X0.256250X-0.218750X0.256250X-0.218750X-0.256250X0.218750X-0.256250X0*%
%ADD19RoundRect,0.250000X-0.325000X-0.650000X0.325000X-0.650000X0.325000X0.650000X-0.325000X0.650000X0*%
%ADD20RoundRect,0.225000X-0.225000X-0.250000X0.225000X-0.250000X0.225000X0.250000X-0.225000X0.250000X0*%
%ADD21RoundRect,0.200000X0.275000X-0.200000X0.275000X0.200000X-0.275000X0.200000X-0.275000X-0.200000X0*%
%ADD22RoundRect,0.140000X0.170000X-0.140000X0.170000X0.140000X-0.170000X0.140000X-0.170000X-0.140000X0*%
%ADD23R,2.500000X1.900000*%
%ADD24RoundRect,0.140000X0.140000X0.170000X-0.140000X0.170000X-0.140000X-0.170000X0.140000X-0.170000X0*%
%ADD25RoundRect,0.200000X-0.275000X0.200000X-0.275000X-0.200000X0.275000X-0.200000X0.275000X0.200000X0*%
%ADD26RoundRect,0.150000X-0.150000X0.587500X-0.150000X-0.587500X0.150000X-0.587500X0.150000X0.587500X0*%
%ADD27RoundRect,0.225000X0.250000X-0.225000X0.250000X0.225000X-0.250000X0.225000X-0.250000X-0.225000X0*%
%ADD28RoundRect,0.075000X-0.700000X-0.075000X0.700000X-0.075000X0.700000X0.075000X-0.700000X0.075000X0*%
%ADD29RoundRect,0.075000X-0.075000X-0.700000X0.075000X-0.700000X0.075000X0.700000X-0.075000X0.700000X0*%
%ADD30RoundRect,0.135000X0.135000X0.185000X-0.135000X0.185000X-0.135000X-0.185000X0.135000X-0.185000X0*%
%ADD31R,1.200000X1.400000*%
%ADD32RoundRect,0.200000X0.200000X0.275000X-0.200000X0.275000X-0.200000X-0.275000X0.200000X-0.275000X0*%
%ADD33RoundRect,0.218750X-0.381250X0.218750X-0.381250X-0.218750X0.381250X-0.218750X0.381250X0.218750X0*%
%ADD34RoundRect,0.150000X0.512500X0.150000X-0.512500X0.150000X-0.512500X-0.150000X0.512500X-0.150000X0*%
%ADD35RoundRect,0.218750X0.256250X-0.218750X0.256250X0.218750X-0.256250X0.218750X-0.256250X-0.218750X0*%
%ADD36RoundRect,0.250000X0.325000X0.650000X-0.325000X0.650000X-0.325000X-0.650000X0.325000X-0.650000X0*%
%ADD37RoundRect,0.225000X0.225000X0.375000X-0.225000X0.375000X-0.225000X-0.375000X0.225000X-0.375000X0*%
%ADD38RoundRect,0.225000X-0.225000X-0.375000X0.225000X-0.375000X0.225000X0.375000X-0.225000X0.375000X0*%
%ADD39R,1.400000X0.400000*%
%ADD40R,1.450000X1.150000*%
%ADD41R,1.900000X1.750000*%
%ADD42RoundRect,0.225000X0.225000X0.250000X-0.225000X0.250000X-0.225000X-0.250000X0.225000X-0.250000X0*%
G04 APERTURE END LIST*
D10*
%TO.C,C11*%
X189756800Y-75295000D03*
X190716800Y-75295000D03*
%TD*%
D11*
%TO.C,U2*%
X220036800Y-91432500D03*
X220986800Y-91432500D03*
X221936800Y-91432500D03*
X221936800Y-89157500D03*
X220986800Y-89157500D03*
X220036800Y-89157500D03*
%TD*%
D12*
%TO.C,F1*%
X223886800Y-79382500D03*
X221086800Y-79382500D03*
%TD*%
D13*
%TO.C,L1*%
X190001800Y-82795000D03*
X190971800Y-82795000D03*
%TD*%
D14*
%TO.C,J2*%
X213396800Y-57145000D03*
X213396800Y-61045000D03*
X212126800Y-57145000D03*
X212126800Y-61045000D03*
X210856800Y-57145000D03*
X210856800Y-61045000D03*
X209586800Y-57145000D03*
X209586800Y-61045000D03*
X208316800Y-57145000D03*
X208316800Y-61045000D03*
%TD*%
D15*
%TO.C,R2*%
X192976800Y-79295000D03*
X193996800Y-79295000D03*
%TD*%
D16*
%TO.C,SW1*%
X188016800Y-65895000D03*
X185806800Y-65895000D03*
X188016800Y-73195000D03*
X185806800Y-73195000D03*
D17*
X188666800Y-67295000D03*
X188666800Y-70295000D03*
X188666800Y-71795000D03*
%TD*%
D18*
%TO.C,D4*%
X221561800Y-60045000D03*
X219986800Y-60045000D03*
%TD*%
D19*
%TO.C,C16*%
X214511800Y-97545000D03*
X217461800Y-97545000D03*
%TD*%
D20*
%TO.C,C2*%
X205461800Y-87545000D03*
X207011800Y-87545000D03*
%TD*%
D21*
%TO.C,R5*%
X225486800Y-89870000D03*
X225486800Y-88220000D03*
%TD*%
D22*
%TO.C,C7*%
X207936800Y-74100000D03*
X207936800Y-73140000D03*
%TD*%
D23*
%TO.C,L2*%
X214236800Y-87245000D03*
X214236800Y-91345000D03*
%TD*%
D22*
%TO.C,C9*%
X192736800Y-82005000D03*
X192736800Y-81045000D03*
%TD*%
D24*
%TO.C,C5*%
X199216800Y-87045000D03*
X198256800Y-87045000D03*
%TD*%
D25*
%TO.C,R4*%
X223736800Y-88220000D03*
X223736800Y-89870000D03*
%TD*%
D19*
%TO.C,C13*%
X220886800Y-85982500D03*
X223836800Y-85982500D03*
%TD*%
D26*
%TO.C,Q1*%
X225436800Y-81857500D03*
X223536800Y-81857500D03*
X224486800Y-83732500D03*
%TD*%
D15*
%TO.C,R9*%
X201526800Y-69295000D03*
X202546800Y-69295000D03*
%TD*%
D27*
%TO.C,C1*%
X209966800Y-75965000D03*
X209966800Y-74415000D03*
%TD*%
D28*
%TO.C,U1*%
X196061800Y-75545000D03*
X196061800Y-76045000D03*
X196061800Y-76545000D03*
X196061800Y-77045000D03*
X196061800Y-77545000D03*
X196061800Y-78045000D03*
X196061800Y-78545000D03*
X196061800Y-79045000D03*
X196061800Y-79545000D03*
X196061800Y-80045000D03*
X196061800Y-80545000D03*
X196061800Y-81045000D03*
X196061800Y-81545000D03*
X196061800Y-82045000D03*
X196061800Y-82545000D03*
X196061800Y-83045000D03*
D29*
X197986800Y-84970000D03*
X198486800Y-84970000D03*
X198986800Y-84970000D03*
X199486800Y-84970000D03*
X199986800Y-84970000D03*
X200486800Y-84970000D03*
X200986800Y-84970000D03*
X201486800Y-84970000D03*
X201986800Y-84970000D03*
X202486800Y-84970000D03*
X202986800Y-84970000D03*
X203486800Y-84970000D03*
X203986800Y-84970000D03*
X204486800Y-84970000D03*
X204986800Y-84970000D03*
X205486800Y-84970000D03*
D28*
X207411800Y-83045000D03*
X207411800Y-82545000D03*
X207411800Y-82045000D03*
X207411800Y-81545000D03*
X207411800Y-81045000D03*
X207411800Y-80545000D03*
X207411800Y-80045000D03*
X207411800Y-79545000D03*
X207411800Y-79045000D03*
X207411800Y-78545000D03*
X207411800Y-78045000D03*
X207411800Y-77545000D03*
X207411800Y-77045000D03*
X207411800Y-76545000D03*
X207411800Y-76045000D03*
X207411800Y-75545000D03*
D29*
X205486800Y-73620000D03*
X204986800Y-73620000D03*
X204486800Y-73620000D03*
X203986800Y-73620000D03*
X203486800Y-73620000D03*
X202986800Y-73620000D03*
X202486800Y-73620000D03*
X201986800Y-73620000D03*
X201486800Y-73620000D03*
X200986800Y-73620000D03*
X200486800Y-73620000D03*
X199986800Y-73620000D03*
X199486800Y-73620000D03*
X198986800Y-73620000D03*
X198486800Y-73620000D03*
X197986800Y-73620000D03*
%TD*%
D21*
%TO.C,R8*%
X227586800Y-93707500D03*
X227586800Y-92057500D03*
%TD*%
D22*
%TO.C,C4*%
X193936800Y-75600000D03*
X193936800Y-74640000D03*
%TD*%
D30*
%TO.C,R10*%
X200246800Y-69295000D03*
X199226800Y-69295000D03*
%TD*%
D31*
%TO.C,Y1*%
X189536800Y-77195000D03*
X189536800Y-79395000D03*
X191236800Y-79395000D03*
X191236800Y-77195000D03*
%TD*%
D10*
%TO.C,C6*%
X206686800Y-85620000D03*
X207646800Y-85620000D03*
%TD*%
D32*
%TO.C,R11*%
X221611800Y-62070000D03*
X219961800Y-62070000D03*
%TD*%
D22*
%TO.C,C10*%
X193936800Y-82005000D03*
X193936800Y-81045000D03*
%TD*%
D33*
%TO.C,FB1*%
X220986800Y-81670000D03*
X220986800Y-83795000D03*
%TD*%
D21*
%TO.C,R6*%
X224086800Y-93707500D03*
X224086800Y-92057500D03*
%TD*%
D34*
%TO.C,U3*%
X227574300Y-71845000D03*
X227574300Y-70895000D03*
X227574300Y-69945000D03*
X225299300Y-69945000D03*
X225299300Y-70895000D03*
X225299300Y-71845000D03*
%TD*%
D35*
%TO.C,D1*%
X195236800Y-86332500D03*
X195236800Y-84757500D03*
%TD*%
D27*
%TO.C,C14*%
X218236800Y-91070000D03*
X218236800Y-89520000D03*
%TD*%
D25*
%TO.C,R7*%
X225836800Y-92057500D03*
X225836800Y-93707500D03*
%TD*%
D15*
%TO.C,R1*%
X191996800Y-69045000D03*
X190976800Y-69045000D03*
%TD*%
D25*
%TO.C,R3*%
X192936800Y-84795000D03*
X192936800Y-86445000D03*
%TD*%
D10*
%TO.C,C8*%
X197706800Y-71370000D03*
X198666800Y-71370000D03*
%TD*%
D36*
%TO.C,C15*%
X217461800Y-94795000D03*
X214511800Y-94795000D03*
%TD*%
D24*
%TO.C,C12*%
X190796800Y-81045000D03*
X189836800Y-81045000D03*
%TD*%
D37*
%TO.C,D3*%
X229636800Y-79382500D03*
X226336800Y-79382500D03*
%TD*%
D38*
%TO.C,D2*%
X214336800Y-84545000D03*
X217636800Y-84545000D03*
%TD*%
D39*
%TO.C,J5*%
X230711800Y-71795000D03*
X230711800Y-71145000D03*
X230711800Y-70495000D03*
X230711800Y-69845000D03*
X230711800Y-69195000D03*
D40*
X231131800Y-72815000D03*
D41*
X233361800Y-71620000D03*
X233361800Y-69370000D03*
D40*
X231131800Y-68175000D03*
%TD*%
D42*
%TO.C,C3*%
X195461800Y-71370000D03*
X193911800Y-71370000D03*
%TD*%
M02*
