%TF.GenerationSoftware,KiCad,Pcbnew,7.0.2*%
%TF.CreationDate,2023-05-29T20:24:48+05:30*%
%TF.ProjectId,STM_32_Board,53544d5f-3332-45f4-926f-6172642e6b69,rev?*%
%TF.SameCoordinates,Original*%
%TF.FileFunction,Copper,L1,Top*%
%TF.FilePolarity,Positive*%
%FSLAX46Y46*%
G04 Gerber Fmt 4.6, Leading zero omitted, Abs format (unit mm)*
G04 Created by KiCad (PCBNEW 7.0.2) date 2023-05-29 20:24:48*
%MOMM*%
%LPD*%
G01*
G04 APERTURE LIST*
G04 Aperture macros list*
%AMRoundRect*
0 Rectangle with rounded corners*
0 $1 Rounding radius*
0 $2 $3 $4 $5 $6 $7 $8 $9 X,Y pos of 4 corners*
0 Add a 4 corners polygon primitive as box body*
4,1,4,$2,$3,$4,$5,$6,$7,$8,$9,$2,$3,0*
0 Add four circle primitives for the rounded corners*
1,1,$1+$1,$2,$3*
1,1,$1+$1,$4,$5*
1,1,$1+$1,$6,$7*
1,1,$1+$1,$8,$9*
0 Add four rect primitives between the rounded corners*
20,1,$1+$1,$2,$3,$4,$5,0*
20,1,$1+$1,$4,$5,$6,$7,0*
20,1,$1+$1,$6,$7,$8,$9,0*
20,1,$1+$1,$8,$9,$2,$3,0*%
G04 Aperture macros list end*
%TA.AperFunction,SMDPad,CuDef*%
%ADD10RoundRect,0.140000X-0.140000X-0.170000X0.140000X-0.170000X0.140000X0.170000X-0.140000X0.170000X0*%
%TD*%
%TA.AperFunction,SMDPad,CuDef*%
%ADD11RoundRect,0.150000X0.150000X-0.512500X0.150000X0.512500X-0.150000X0.512500X-0.150000X-0.512500X0*%
%TD*%
%TA.AperFunction,SMDPad,CuDef*%
%ADD12RoundRect,0.250000X0.375000X0.625000X-0.375000X0.625000X-0.375000X-0.625000X0.375000X-0.625000X0*%
%TD*%
%TA.AperFunction,SMDPad,CuDef*%
%ADD13RoundRect,0.147500X-0.147500X-0.172500X0.147500X-0.172500X0.147500X0.172500X-0.147500X0.172500X0*%
%TD*%
%TA.AperFunction,SMDPad,CuDef*%
%ADD14R,0.740000X2.400000*%
%TD*%
%TA.AperFunction,SMDPad,CuDef*%
%ADD15RoundRect,0.135000X-0.135000X-0.185000X0.135000X-0.185000X0.135000X0.185000X-0.135000X0.185000X0*%
%TD*%
%TA.AperFunction,SMDPad,CuDef*%
%ADD16R,0.800000X1.000000*%
%TD*%
%TA.AperFunction,SMDPad,CuDef*%
%ADD17R,1.500000X0.700000*%
%TD*%
%TA.AperFunction,SMDPad,CuDef*%
%ADD18RoundRect,0.218750X0.218750X0.256250X-0.218750X0.256250X-0.218750X-0.256250X0.218750X-0.256250X0*%
%TD*%
%TA.AperFunction,SMDPad,CuDef*%
%ADD19RoundRect,0.250000X-0.325000X-0.650000X0.325000X-0.650000X0.325000X0.650000X-0.325000X0.650000X0*%
%TD*%
%TA.AperFunction,SMDPad,CuDef*%
%ADD20RoundRect,0.225000X-0.225000X-0.250000X0.225000X-0.250000X0.225000X0.250000X-0.225000X0.250000X0*%
%TD*%
%TA.AperFunction,ComponentPad*%
%ADD21RoundRect,0.200000X0.200000X0.450000X-0.200000X0.450000X-0.200000X-0.450000X0.200000X-0.450000X0*%
%TD*%
%TA.AperFunction,ComponentPad*%
%ADD22O,0.800000X1.300000*%
%TD*%
%TA.AperFunction,SMDPad,CuDef*%
%ADD23RoundRect,0.200000X0.275000X-0.200000X0.275000X0.200000X-0.275000X0.200000X-0.275000X-0.200000X0*%
%TD*%
%TA.AperFunction,SMDPad,CuDef*%
%ADD24RoundRect,0.140000X0.170000X-0.140000X0.170000X0.140000X-0.170000X0.140000X-0.170000X-0.140000X0*%
%TD*%
%TA.AperFunction,SMDPad,CuDef*%
%ADD25R,2.500000X1.900000*%
%TD*%
%TA.AperFunction,SMDPad,CuDef*%
%ADD26RoundRect,0.140000X0.140000X0.170000X-0.140000X0.170000X-0.140000X-0.170000X0.140000X-0.170000X0*%
%TD*%
%TA.AperFunction,SMDPad,CuDef*%
%ADD27RoundRect,0.200000X-0.275000X0.200000X-0.275000X-0.200000X0.275000X-0.200000X0.275000X0.200000X0*%
%TD*%
%TA.AperFunction,SMDPad,CuDef*%
%ADD28RoundRect,0.150000X-0.150000X0.587500X-0.150000X-0.587500X0.150000X-0.587500X0.150000X0.587500X0*%
%TD*%
%TA.AperFunction,SMDPad,CuDef*%
%ADD29RoundRect,0.225000X0.250000X-0.225000X0.250000X0.225000X-0.250000X0.225000X-0.250000X-0.225000X0*%
%TD*%
%TA.AperFunction,SMDPad,CuDef*%
%ADD30RoundRect,0.075000X-0.700000X-0.075000X0.700000X-0.075000X0.700000X0.075000X-0.700000X0.075000X0*%
%TD*%
%TA.AperFunction,SMDPad,CuDef*%
%ADD31RoundRect,0.075000X-0.075000X-0.700000X0.075000X-0.700000X0.075000X0.700000X-0.075000X0.700000X0*%
%TD*%
%TA.AperFunction,ComponentPad*%
%ADD32C,0.900000*%
%TD*%
%TA.AperFunction,ComponentPad*%
%ADD33C,8.600000*%
%TD*%
%TA.AperFunction,SMDPad,CuDef*%
%ADD34RoundRect,0.135000X0.135000X0.185000X-0.135000X0.185000X-0.135000X-0.185000X0.135000X-0.185000X0*%
%TD*%
%TA.AperFunction,SMDPad,CuDef*%
%ADD35R,1.200000X1.400000*%
%TD*%
%TA.AperFunction,SMDPad,CuDef*%
%ADD36RoundRect,0.200000X0.200000X0.275000X-0.200000X0.275000X-0.200000X-0.275000X0.200000X-0.275000X0*%
%TD*%
%TA.AperFunction,ComponentPad*%
%ADD37RoundRect,0.200000X-0.200000X-0.450000X0.200000X-0.450000X0.200000X0.450000X-0.200000X0.450000X0*%
%TD*%
%TA.AperFunction,SMDPad,CuDef*%
%ADD38RoundRect,0.218750X-0.381250X0.218750X-0.381250X-0.218750X0.381250X-0.218750X0.381250X0.218750X0*%
%TD*%
%TA.AperFunction,SMDPad,CuDef*%
%ADD39RoundRect,0.150000X0.512500X0.150000X-0.512500X0.150000X-0.512500X-0.150000X0.512500X-0.150000X0*%
%TD*%
%TA.AperFunction,SMDPad,CuDef*%
%ADD40RoundRect,0.218750X0.256250X-0.218750X0.256250X0.218750X-0.256250X0.218750X-0.256250X-0.218750X0*%
%TD*%
%TA.AperFunction,ComponentPad*%
%ADD41R,2.400000X2.400000*%
%TD*%
%TA.AperFunction,ComponentPad*%
%ADD42C,2.400000*%
%TD*%
%TA.AperFunction,SMDPad,CuDef*%
%ADD43RoundRect,0.250000X0.325000X0.650000X-0.325000X0.650000X-0.325000X-0.650000X0.325000X-0.650000X0*%
%TD*%
%TA.AperFunction,SMDPad,CuDef*%
%ADD44RoundRect,0.225000X0.225000X0.375000X-0.225000X0.375000X-0.225000X-0.375000X0.225000X-0.375000X0*%
%TD*%
%TA.AperFunction,SMDPad,CuDef*%
%ADD45RoundRect,0.225000X-0.225000X-0.375000X0.225000X-0.375000X0.225000X0.375000X-0.225000X0.375000X0*%
%TD*%
%TA.AperFunction,SMDPad,CuDef*%
%ADD46R,1.400000X0.400000*%
%TD*%
%TA.AperFunction,ComponentPad*%
%ADD47O,1.900000X1.050000*%
%TD*%
%TA.AperFunction,SMDPad,CuDef*%
%ADD48R,1.450000X1.150000*%
%TD*%
%TA.AperFunction,SMDPad,CuDef*%
%ADD49R,1.900000X1.750000*%
%TD*%
%TA.AperFunction,SMDPad,CuDef*%
%ADD50RoundRect,0.225000X0.225000X0.250000X-0.225000X0.250000X-0.225000X-0.250000X0.225000X-0.250000X0*%
%TD*%
%TA.AperFunction,ViaPad*%
%ADD51C,0.800000*%
%TD*%
%TA.AperFunction,Conductor*%
%ADD52C,0.300000*%
%TD*%
%TA.AperFunction,Conductor*%
%ADD53C,0.500000*%
%TD*%
%TA.AperFunction,Conductor*%
%ADD54C,0.750000*%
%TD*%
%TA.AperFunction,Conductor*%
%ADD55C,1.000000*%
%TD*%
%TA.AperFunction,Conductor*%
%ADD56C,0.400000*%
%TD*%
%TA.AperFunction,Conductor*%
%ADD57C,0.200000*%
%TD*%
G04 APERTURE END LIST*
D10*
%TO.P,C11,1*%
%TO.N,HSE_IN*%
X189756800Y-75295000D03*
%TO.P,C11,2*%
%TO.N,GND*%
X190716800Y-75295000D03*
%TD*%
D11*
%TO.P,U2,1,BST*%
%TO.N,BUCK_BST*%
X220036800Y-91432500D03*
%TO.P,U2,2,GND*%
%TO.N,GND*%
X220986800Y-91432500D03*
%TO.P,U2,3,FB*%
%TO.N,BUCK_FB*%
X221936800Y-91432500D03*
%TO.P,U2,4,EN*%
%TO.N,BUCK_EN*%
X221936800Y-89157500D03*
%TO.P,U2,5,IN*%
%TO.N,BUCK_IN*%
X220986800Y-89157500D03*
%TO.P,U2,6,SW*%
%TO.N,BUCK_SW*%
X220036800Y-89157500D03*
%TD*%
D12*
%TO.P,F1,1*%
%TO.N,Net-(D3-A)*%
X223886800Y-79382500D03*
%TO.P,F1,2*%
%TO.N,Net-(F1-Pad2)*%
X221086800Y-79382500D03*
%TD*%
D13*
%TO.P,L1,1*%
%TO.N,+3.3V*%
X190001800Y-82795000D03*
%TO.P,L1,2*%
%TO.N,+3.3VA*%
X190971800Y-82795000D03*
%TD*%
D14*
%TO.P,J2,1,Pin_1*%
%TO.N,+3.3V*%
X213396800Y-57145000D03*
%TO.P,J2,2,Pin_2*%
%TO.N,SWDIO*%
X213396800Y-61045000D03*
%TO.P,J2,3,Pin_3*%
%TO.N,GND*%
X212126800Y-57145000D03*
%TO.P,J2,4,Pin_4*%
%TO.N,SWCLK*%
X212126800Y-61045000D03*
%TO.P,J2,5,Pin_5*%
%TO.N,GND*%
X210856800Y-57145000D03*
%TO.P,J2,6,Pin_6*%
%TO.N,SWO*%
X210856800Y-61045000D03*
%TO.P,J2,7,Pin_7*%
%TO.N,unconnected-(J2-Pin_7-Pad7)*%
X209586800Y-57145000D03*
%TO.P,J2,8,Pin_8*%
%TO.N,unconnected-(J2-Pin_8-Pad8)*%
X209586800Y-61045000D03*
%TO.P,J2,9,Pin_9*%
%TO.N,GND*%
X208316800Y-57145000D03*
%TO.P,J2,10,Pin_10*%
%TO.N,NRST*%
X208316800Y-61045000D03*
%TD*%
D15*
%TO.P,R2,1*%
%TO.N,Net-(C12-Pad1)*%
X192976800Y-79295000D03*
%TO.P,R2,2*%
%TO.N,HSE_OUT*%
X193996800Y-79295000D03*
%TD*%
D16*
%TO.P,SW1,*%
%TO.N,*%
X188016800Y-65895000D03*
X185806800Y-65895000D03*
X188016800Y-73195000D03*
X185806800Y-73195000D03*
D17*
%TO.P,SW1,1,A*%
%TO.N,+3.3V*%
X188666800Y-67295000D03*
%TO.P,SW1,2,B*%
%TO.N,Net-(SW1-B)*%
X188666800Y-70295000D03*
%TO.P,SW1,3,C*%
%TO.N,GND*%
X188666800Y-71795000D03*
%TD*%
D18*
%TO.P,D4,1,K*%
%TO.N,Net-(D4-K)*%
X221561800Y-60045000D03*
%TO.P,D4,2,A*%
%TO.N,+3.3V*%
X219986800Y-60045000D03*
%TD*%
D19*
%TO.P,C16,1*%
%TO.N,+3.3V*%
X214511800Y-97545000D03*
%TO.P,C16,2*%
%TO.N,GND*%
X217461800Y-97545000D03*
%TD*%
D20*
%TO.P,C2,1*%
%TO.N,Net-(U1-VCAP_1)*%
X205461800Y-87545000D03*
%TO.P,C2,2*%
%TO.N,GND*%
X207011800Y-87545000D03*
%TD*%
D21*
%TO.P,J3,1,Pin_1*%
%TO.N,+3.3V*%
X202611800Y-61745000D03*
D22*
%TO.P,J3,2,Pin_2*%
%TO.N,I2C1_SCL*%
X201361800Y-61745000D03*
%TO.P,J3,3,Pin_3*%
%TO.N,I2C1_SDA*%
X200111800Y-61745000D03*
%TO.P,J3,4,Pin_4*%
%TO.N,GND*%
X198861800Y-61745000D03*
%TD*%
D23*
%TO.P,R5,1*%
%TO.N,BUCK_EN*%
X225486800Y-89870000D03*
%TO.P,R5,2*%
%TO.N,GND*%
X225486800Y-88220000D03*
%TD*%
D24*
%TO.P,C7,1*%
%TO.N,+3.3V*%
X207936800Y-74100000D03*
%TO.P,C7,2*%
%TO.N,GND*%
X207936800Y-73140000D03*
%TD*%
D25*
%TO.P,L2,1*%
%TO.N,BUCK_SW*%
X214236800Y-87245000D03*
%TO.P,L2,2*%
%TO.N,+3.3V*%
X214236800Y-91345000D03*
%TD*%
D24*
%TO.P,C9,1*%
%TO.N,+3.3VA*%
X192736800Y-82005000D03*
%TO.P,C9,2*%
%TO.N,GND*%
X192736800Y-81045000D03*
%TD*%
D26*
%TO.P,C5,1*%
%TO.N,+3.3V*%
X199216800Y-87045000D03*
%TO.P,C5,2*%
%TO.N,GND*%
X198256800Y-87045000D03*
%TD*%
D27*
%TO.P,R4,1*%
%TO.N,BUCK_IN*%
X223736800Y-88220000D03*
%TO.P,R4,2*%
%TO.N,BUCK_EN*%
X223736800Y-89870000D03*
%TD*%
D19*
%TO.P,C13,1*%
%TO.N,BUCK_IN*%
X220886800Y-85982500D03*
%TO.P,C13,2*%
%TO.N,GND*%
X223836800Y-85982500D03*
%TD*%
D28*
%TO.P,Q1,1,G*%
%TO.N,GND*%
X225436800Y-81857500D03*
%TO.P,Q1,2,S*%
%TO.N,Net-(D3-A)*%
X223536800Y-81857500D03*
%TO.P,Q1,3,D*%
%TO.N,+12V*%
X224486800Y-83732500D03*
%TD*%
D15*
%TO.P,R9,1*%
%TO.N,I2C1_SCL*%
X201526800Y-69295000D03*
%TO.P,R9,2*%
%TO.N,+3.3V*%
X202546800Y-69295000D03*
%TD*%
D29*
%TO.P,C1,1*%
%TO.N,Net-(U1-VCAP_2)*%
X209966800Y-75965000D03*
%TO.P,C1,2*%
%TO.N,GND*%
X209966800Y-74415000D03*
%TD*%
D30*
%TO.P,U1,1,VBAT*%
%TO.N,+3.3V*%
X196061800Y-75545000D03*
%TO.P,U1,2,PC13*%
%TO.N,unconnected-(U1-PC13-Pad2)*%
X196061800Y-76045000D03*
%TO.P,U1,3,PC14*%
%TO.N,unconnected-(U1-PC14-Pad3)*%
X196061800Y-76545000D03*
%TO.P,U1,4,PC15*%
%TO.N,unconnected-(U1-PC15-Pad4)*%
X196061800Y-77045000D03*
%TO.P,U1,5,PH0*%
%TO.N,HSE_IN*%
X196061800Y-77545000D03*
%TO.P,U1,6,PH1*%
%TO.N,HSE_OUT*%
X196061800Y-78045000D03*
%TO.P,U1,7,NRST*%
%TO.N,NRST*%
X196061800Y-78545000D03*
%TO.P,U1,8,PC0*%
%TO.N,unconnected-(U1-PC0-Pad8)*%
X196061800Y-79045000D03*
%TO.P,U1,9,PC1*%
%TO.N,unconnected-(U1-PC1-Pad9)*%
X196061800Y-79545000D03*
%TO.P,U1,10,PC2*%
%TO.N,unconnected-(U1-PC2-Pad10)*%
X196061800Y-80045000D03*
%TO.P,U1,11,PC3*%
%TO.N,unconnected-(U1-PC3-Pad11)*%
X196061800Y-80545000D03*
%TO.P,U1,12,VSSA*%
%TO.N,GND*%
X196061800Y-81045000D03*
%TO.P,U1,13,VDDA*%
%TO.N,+3.3VA*%
X196061800Y-81545000D03*
%TO.P,U1,14,PA0*%
%TO.N,unconnected-(U1-PA0-Pad14)*%
X196061800Y-82045000D03*
%TO.P,U1,15,PA1*%
%TO.N,unconnected-(U1-PA1-Pad15)*%
X196061800Y-82545000D03*
%TO.P,U1,16,PA2*%
%TO.N,LED_STATUS*%
X196061800Y-83045000D03*
D31*
%TO.P,U1,17,PA3*%
%TO.N,unconnected-(U1-PA3-Pad17)*%
X197986800Y-84970000D03*
%TO.P,U1,18,VSS*%
%TO.N,GND*%
X198486800Y-84970000D03*
%TO.P,U1,19,VDD*%
%TO.N,+3.3V*%
X198986800Y-84970000D03*
%TO.P,U1,20,PA4*%
%TO.N,unconnected-(U1-PA4-Pad20)*%
X199486800Y-84970000D03*
%TO.P,U1,21,PA5*%
%TO.N,unconnected-(U1-PA5-Pad21)*%
X199986800Y-84970000D03*
%TO.P,U1,22,PA6*%
%TO.N,unconnected-(U1-PA6-Pad22)*%
X200486800Y-84970000D03*
%TO.P,U1,23,PA7*%
%TO.N,unconnected-(U1-PA7-Pad23)*%
X200986800Y-84970000D03*
%TO.P,U1,24,PC4*%
%TO.N,unconnected-(U1-PC4-Pad24)*%
X201486800Y-84970000D03*
%TO.P,U1,25,PC5*%
%TO.N,unconnected-(U1-PC5-Pad25)*%
X201986800Y-84970000D03*
%TO.P,U1,26,PB0*%
%TO.N,unconnected-(U1-PB0-Pad26)*%
X202486800Y-84970000D03*
%TO.P,U1,27,PB1*%
%TO.N,unconnected-(U1-PB1-Pad27)*%
X202986800Y-84970000D03*
%TO.P,U1,28,PB2*%
%TO.N,unconnected-(U1-PB2-Pad28)*%
X203486800Y-84970000D03*
%TO.P,U1,29,PB10*%
%TO.N,USART3_Tx*%
X203986800Y-84970000D03*
%TO.P,U1,30,PB11*%
%TO.N,USART3_Rx*%
X204486800Y-84970000D03*
%TO.P,U1,31,VCAP_1*%
%TO.N,Net-(U1-VCAP_1)*%
X204986800Y-84970000D03*
%TO.P,U1,32,VDD*%
%TO.N,+3.3V*%
X205486800Y-84970000D03*
D30*
%TO.P,U1,33,PB12*%
%TO.N,unconnected-(U1-PB12-Pad33)*%
X207411800Y-83045000D03*
%TO.P,U1,34,PB13*%
%TO.N,unconnected-(U1-PB13-Pad34)*%
X207411800Y-82545000D03*
%TO.P,U1,35,PB14*%
%TO.N,unconnected-(U1-PB14-Pad35)*%
X207411800Y-82045000D03*
%TO.P,U1,36,PB15*%
%TO.N,unconnected-(U1-PB15-Pad36)*%
X207411800Y-81545000D03*
%TO.P,U1,37,PC6*%
%TO.N,unconnected-(U1-PC6-Pad37)*%
X207411800Y-81045000D03*
%TO.P,U1,38,PC7*%
%TO.N,unconnected-(U1-PC7-Pad38)*%
X207411800Y-80545000D03*
%TO.P,U1,39,PC8*%
%TO.N,unconnected-(U1-PC8-Pad39)*%
X207411800Y-80045000D03*
%TO.P,U1,40,PC9*%
%TO.N,unconnected-(U1-PC9-Pad40)*%
X207411800Y-79545000D03*
%TO.P,U1,41,PA8*%
%TO.N,unconnected-(U1-PA8-Pad41)*%
X207411800Y-79045000D03*
%TO.P,U1,42,PA9*%
%TO.N,unconnected-(U1-PA9-Pad42)*%
X207411800Y-78545000D03*
%TO.P,U1,43,PA10*%
%TO.N,unconnected-(U1-PA10-Pad43)*%
X207411800Y-78045000D03*
%TO.P,U1,44,PA11*%
%TO.N,USB_D-*%
X207411800Y-77545000D03*
%TO.P,U1,45,PA12*%
%TO.N,USB_D+*%
X207411800Y-77045000D03*
%TO.P,U1,46,PA13*%
%TO.N,SWDIO*%
X207411800Y-76545000D03*
%TO.P,U1,47,VCAP_2*%
%TO.N,Net-(U1-VCAP_2)*%
X207411800Y-76045000D03*
%TO.P,U1,48,VDD*%
%TO.N,+3.3V*%
X207411800Y-75545000D03*
D31*
%TO.P,U1,49,PA14*%
%TO.N,SWCLK*%
X205486800Y-73620000D03*
%TO.P,U1,50,PA15*%
%TO.N,unconnected-(U1-PA15-Pad50)*%
X204986800Y-73620000D03*
%TO.P,U1,51,PC10*%
%TO.N,unconnected-(U1-PC10-Pad51)*%
X204486800Y-73620000D03*
%TO.P,U1,52,PC11*%
%TO.N,unconnected-(U1-PC11-Pad52)*%
X203986800Y-73620000D03*
%TO.P,U1,53,PC12*%
%TO.N,unconnected-(U1-PC12-Pad53)*%
X203486800Y-73620000D03*
%TO.P,U1,54,PD2*%
%TO.N,unconnected-(U1-PD2-Pad54)*%
X202986800Y-73620000D03*
%TO.P,U1,55,PB3*%
%TO.N,SWO*%
X202486800Y-73620000D03*
%TO.P,U1,56,PB4*%
%TO.N,unconnected-(U1-PB4-Pad56)*%
X201986800Y-73620000D03*
%TO.P,U1,57,PB5*%
%TO.N,unconnected-(U1-PB5-Pad57)*%
X201486800Y-73620000D03*
%TO.P,U1,58,PB6*%
%TO.N,I2C1_SCL*%
X200986800Y-73620000D03*
%TO.P,U1,59,PB7*%
%TO.N,I2C1_SDA*%
X200486800Y-73620000D03*
%TO.P,U1,60,BOOT0*%
%TO.N,BOOTO*%
X199986800Y-73620000D03*
%TO.P,U1,61,PB8*%
%TO.N,unconnected-(U1-PB8-Pad61)*%
X199486800Y-73620000D03*
%TO.P,U1,62,PB9*%
%TO.N,unconnected-(U1-PB9-Pad62)*%
X198986800Y-73620000D03*
%TO.P,U1,63,VSS*%
%TO.N,GND*%
X198486800Y-73620000D03*
%TO.P,U1,64,VDD*%
%TO.N,+3.3V*%
X197986800Y-73620000D03*
%TD*%
D32*
%TO.P,H3,1,1*%
%TO.N,GND*%
X226761800Y-99545000D03*
X227706381Y-97264581D03*
X227706381Y-101825419D03*
X229986800Y-96320000D03*
D33*
X229986800Y-99545000D03*
D32*
X229986800Y-102770000D03*
X232267219Y-97264581D03*
X232267219Y-101825419D03*
X233211800Y-99545000D03*
%TD*%
%TO.P,H4,1,1*%
%TO.N,GND*%
X186261800Y-99545000D03*
X187206381Y-97264581D03*
X187206381Y-101825419D03*
X189486800Y-96320000D03*
D33*
X189486800Y-99545000D03*
D32*
X189486800Y-102770000D03*
X191767219Y-97264581D03*
X191767219Y-101825419D03*
X192711800Y-99545000D03*
%TD*%
D23*
%TO.P,R8,1*%
%TO.N,Net-(R7-Pad2)*%
X227586800Y-93707500D03*
%TO.P,R8,2*%
%TO.N,GND*%
X227586800Y-92057500D03*
%TD*%
D24*
%TO.P,C4,1*%
%TO.N,+3.3V*%
X193936800Y-75600000D03*
%TO.P,C4,2*%
%TO.N,GND*%
X193936800Y-74640000D03*
%TD*%
D34*
%TO.P,R10,1*%
%TO.N,I2C1_SDA*%
X200246800Y-69295000D03*
%TO.P,R10,2*%
%TO.N,+3.3V*%
X199226800Y-69295000D03*
%TD*%
D35*
%TO.P,Y1,1,1*%
%TO.N,HSE_IN*%
X189536800Y-77195000D03*
%TO.P,Y1,2,2*%
%TO.N,GND*%
X189536800Y-79395000D03*
%TO.P,Y1,3,3*%
%TO.N,Net-(C12-Pad1)*%
X191236800Y-79395000D03*
%TO.P,Y1,4,4*%
%TO.N,GND*%
X191236800Y-77195000D03*
%TD*%
D32*
%TO.P,H2,1,1*%
%TO.N,GND*%
X226761800Y-60045000D03*
X227706381Y-57764581D03*
X227706381Y-62325419D03*
X229986800Y-56820000D03*
D33*
X229986800Y-60045000D03*
D32*
X229986800Y-63270000D03*
X232267219Y-57764581D03*
X232267219Y-62325419D03*
X233211800Y-60045000D03*
%TD*%
D10*
%TO.P,C6,1*%
%TO.N,+3.3V*%
X206686800Y-85620000D03*
%TO.P,C6,2*%
%TO.N,GND*%
X207646800Y-85620000D03*
%TD*%
D36*
%TO.P,R11,1*%
%TO.N,Net-(D4-K)*%
X221611800Y-62070000D03*
%TO.P,R11,2*%
%TO.N,GND*%
X219961800Y-62070000D03*
%TD*%
D24*
%TO.P,C10,1*%
%TO.N,+3.3VA*%
X193936800Y-82005000D03*
%TO.P,C10,2*%
%TO.N,GND*%
X193936800Y-81045000D03*
%TD*%
D37*
%TO.P,J4,1,Pin_1*%
%TO.N,+3.3V*%
X200486800Y-96795000D03*
D22*
%TO.P,J4,2,Pin_2*%
%TO.N,USART3_Tx*%
X201736800Y-96795000D03*
%TO.P,J4,3,Pin_3*%
%TO.N,USART3_Rx*%
X202986800Y-96795000D03*
%TO.P,J4,4,Pin_4*%
%TO.N,GND*%
X204236800Y-96795000D03*
%TD*%
D38*
%TO.P,FB1,1*%
%TO.N,Net-(F1-Pad2)*%
X220986800Y-81670000D03*
%TO.P,FB1,2*%
%TO.N,BUCK_IN*%
X220986800Y-83795000D03*
%TD*%
D23*
%TO.P,R6,1*%
%TO.N,+3.3V*%
X224086800Y-93707500D03*
%TO.P,R6,2*%
%TO.N,BUCK_FB*%
X224086800Y-92057500D03*
%TD*%
D39*
%TO.P,U3,1,I/O1*%
%TO.N,USB_CONN_D-*%
X227574300Y-71845000D03*
%TO.P,U3,2,GND*%
%TO.N,GND*%
X227574300Y-70895000D03*
%TO.P,U3,3,I/O2*%
%TO.N,USB_CONN_D+*%
X227574300Y-69945000D03*
%TO.P,U3,4,I/O2*%
%TO.N,USB_D+*%
X225299300Y-69945000D03*
%TO.P,U3,5,VBUS*%
%TO.N,+5V*%
X225299300Y-70895000D03*
%TO.P,U3,6,I/O1*%
%TO.N,USB_D-*%
X225299300Y-71845000D03*
%TD*%
D40*
%TO.P,D1,1,K*%
%TO.N,Net-(D1-K)*%
X195236800Y-86332500D03*
%TO.P,D1,2,A*%
%TO.N,LED_STATUS*%
X195236800Y-84757500D03*
%TD*%
D29*
%TO.P,C14,1*%
%TO.N,BUCK_BST*%
X218236800Y-91070000D03*
%TO.P,C14,2*%
%TO.N,BUCK_SW*%
X218236800Y-89520000D03*
%TD*%
D27*
%TO.P,R7,1*%
%TO.N,BUCK_FB*%
X225836800Y-92057500D03*
%TO.P,R7,2*%
%TO.N,Net-(R7-Pad2)*%
X225836800Y-93707500D03*
%TD*%
D15*
%TO.P,R1,2*%
%TO.N,BOOTO*%
X191996800Y-69045000D03*
%TO.P,R1,1*%
%TO.N,Net-(SW1-B)*%
X190976800Y-69045000D03*
%TD*%
D27*
%TO.P,R3,1*%
%TO.N,GND*%
X192936800Y-84795000D03*
%TO.P,R3,2*%
%TO.N,Net-(D1-K)*%
X192936800Y-86445000D03*
%TD*%
D10*
%TO.P,C8,1*%
%TO.N,+3.3V*%
X197706800Y-71370000D03*
%TO.P,C8,2*%
%TO.N,GND*%
X198666800Y-71370000D03*
%TD*%
D41*
%TO.P,J1,1,Pin_1*%
%TO.N,+12V*%
X230536800Y-88295000D03*
D42*
%TO.P,J1,2,Pin_2*%
%TO.N,GND*%
X230536800Y-84795000D03*
%TD*%
D43*
%TO.P,C15,1*%
%TO.N,GND*%
X217461800Y-94795000D03*
%TO.P,C15,2*%
%TO.N,+3.3V*%
X214511800Y-94795000D03*
%TD*%
D32*
%TO.P,H1,1,1*%
%TO.N,GND*%
X186261800Y-60045000D03*
X187206381Y-57764581D03*
X187206381Y-62325419D03*
X189486800Y-56820000D03*
D33*
X189486800Y-60045000D03*
D32*
X189486800Y-63270000D03*
X191767219Y-57764581D03*
X191767219Y-62325419D03*
X192711800Y-60045000D03*
%TD*%
D26*
%TO.P,C12,1*%
%TO.N,Net-(C12-Pad1)*%
X190796800Y-81045000D03*
%TO.P,C12,2*%
%TO.N,GND*%
X189836800Y-81045000D03*
%TD*%
D44*
%TO.P,D3,1,K*%
%TO.N,+5V*%
X229636800Y-79382500D03*
%TO.P,D3,2,A*%
%TO.N,Net-(D3-A)*%
X226336800Y-79382500D03*
%TD*%
D45*
%TO.P,D2,1,K*%
%TO.N,BUCK_SW*%
X214336800Y-84545000D03*
%TO.P,D2,2,A*%
%TO.N,GND*%
X217636800Y-84545000D03*
%TD*%
D46*
%TO.P,J5,1,VBUS*%
%TO.N,+5V*%
X230711800Y-71795000D03*
%TO.P,J5,2,D-*%
%TO.N,USB_CONN_D-*%
X230711800Y-71145000D03*
%TO.P,J5,3,D+*%
%TO.N,USB_CONN_D+*%
X230711800Y-70495000D03*
%TO.P,J5,4,ID*%
%TO.N,unconnected-(J5-ID-Pad4)*%
X230711800Y-69845000D03*
%TO.P,J5,5,GND*%
%TO.N,GND*%
X230711800Y-69195000D03*
D47*
%TO.P,J5,6,Shield*%
%TO.N,unconnected-(J5-Shield-Pad6)*%
X233361800Y-74070000D03*
D48*
X231131800Y-72815000D03*
D49*
X233361800Y-71620000D03*
X233361800Y-69370000D03*
D48*
X231131800Y-68175000D03*
D47*
X233361800Y-66920000D03*
%TD*%
D50*
%TO.P,C3,1*%
%TO.N,+3.3V*%
X195461800Y-71370000D03*
%TO.P,C3,2*%
%TO.N,GND*%
X193911800Y-71370000D03*
%TD*%
D51*
%TO.N,GND*%
X192061800Y-84820000D03*
X192451161Y-76935106D03*
X188286800Y-79370000D03*
X229536800Y-68770000D03*
X222861800Y-85870000D03*
X228486800Y-92045000D03*
X218436800Y-95520000D03*
X221011800Y-92520000D03*
X224736800Y-81845000D03*
X193961800Y-80345000D03*
X189836800Y-71845000D03*
X219161800Y-62070000D03*
X218486800Y-85070000D03*
X228586800Y-67820000D03*
X226361800Y-88220000D03*
X227636800Y-91220000D03*
X209961800Y-73570000D03*
X218436800Y-96770000D03*
X226261800Y-68745000D03*
X218436800Y-83870000D03*
X207861800Y-87545000D03*
X199336800Y-71370000D03*
X218461800Y-98295000D03*
X228561800Y-68745000D03*
X207961800Y-72445000D03*
X220986800Y-93495000D03*
X224811800Y-85820000D03*
X193936800Y-70470000D03*
X225511800Y-87395000D03*
X208336800Y-85645000D03*
X190711800Y-74570000D03*
X192736800Y-80345000D03*
X208386800Y-55495000D03*
X210861800Y-55545000D03*
X212136800Y-55545000D03*
X193236800Y-74470000D03*
X218386800Y-93870000D03*
X229511800Y-67870000D03*
X197561800Y-87020000D03*
X226111800Y-81845000D03*
%TO.N,+3.3V*%
X208656800Y-74045000D03*
X199236800Y-68555000D03*
X193216800Y-75545000D03*
X213536800Y-94670000D03*
X213486800Y-55545000D03*
X219124300Y-60045000D03*
X206736800Y-86325000D03*
X189816800Y-67295000D03*
X212586800Y-90545000D03*
X215866800Y-90545000D03*
X197736800Y-70645000D03*
X189986800Y-82045000D03*
X203215060Y-69273260D03*
X199236800Y-87745000D03*
X213536800Y-97420000D03*
X189986800Y-83515000D03*
X223986800Y-94545000D03*
X215486800Y-97420000D03*
X195486800Y-70475000D03*
X215866800Y-91795000D03*
X215486800Y-94670000D03*
X212586800Y-91795000D03*
%TO.N,NRST*%
X202486800Y-76545000D03*
X204986800Y-66795000D03*
%TD*%
D52*
%TO.N,BOOTO*%
X199986800Y-74496041D02*
X199986800Y-73620000D01*
X199737841Y-74745000D02*
X199986800Y-74496041D01*
X194135000Y-73545000D02*
X195986800Y-73545000D01*
X195986800Y-73545000D02*
X197186800Y-74745000D01*
X192590000Y-72000000D02*
X194135000Y-73545000D01*
X192590000Y-69638200D02*
X192590000Y-72000000D01*
X191996800Y-69045000D02*
X192590000Y-69638200D01*
X197186800Y-74745000D02*
X199737841Y-74745000D01*
%TO.N,Net-(U1-VCAP_2)*%
X209886800Y-76045000D02*
X209966800Y-75965000D01*
X207411800Y-76045000D02*
X209886800Y-76045000D01*
D53*
%TO.N,GND*%
X189536800Y-79395000D02*
X188311800Y-79395000D01*
D54*
X227636800Y-91220000D02*
X227636800Y-92007500D01*
D55*
X218436800Y-96770000D02*
X218436800Y-98270000D01*
D52*
X229536800Y-68770000D02*
X229961800Y-69195000D01*
D53*
X207646800Y-85620000D02*
X208311800Y-85620000D01*
D52*
X229961800Y-69195000D02*
X230711800Y-69195000D01*
D53*
X228586800Y-68720000D02*
X228561800Y-68745000D01*
D54*
X225424300Y-81845000D02*
X225436800Y-81857500D01*
X226111800Y-81845000D02*
X226111800Y-81870000D01*
D53*
X193936800Y-80370000D02*
X193961800Y-80345000D01*
X192086800Y-84795000D02*
X192061800Y-84820000D01*
X229536800Y-68770000D02*
X229536800Y-67895000D01*
D55*
X217961800Y-84545000D02*
X218486800Y-85070000D01*
D53*
X192451161Y-76935106D02*
X192191267Y-77195000D01*
D55*
X217761800Y-84545000D02*
X218436800Y-83870000D01*
X218386800Y-93870000D02*
X218386800Y-95470000D01*
D54*
X225511800Y-87395000D02*
X225511800Y-88195000D01*
D53*
X190711800Y-74570000D02*
X190711800Y-75290000D01*
X188311800Y-79395000D02*
X188286800Y-79370000D01*
D52*
X198486800Y-71550000D02*
X198486800Y-73620000D01*
D55*
X217461800Y-97545000D02*
X217661800Y-97545000D01*
D53*
X219961800Y-62070000D02*
X219161800Y-62070000D01*
X192736800Y-81045000D02*
X192736800Y-80345000D01*
D54*
X220986800Y-93495000D02*
X220986800Y-91432500D01*
D56*
X226361800Y-70517183D02*
X226361800Y-68845000D01*
D53*
X228586800Y-67820000D02*
X228586800Y-68720000D01*
D55*
X218436800Y-85020000D02*
X218486800Y-85070000D01*
D53*
X193406800Y-74640000D02*
X193236800Y-74470000D01*
X229536800Y-67895000D02*
X229511800Y-67870000D01*
X192191267Y-77195000D02*
X191236800Y-77195000D01*
D56*
X226361800Y-70517183D02*
X226739617Y-70895000D01*
X226739617Y-70895000D02*
X227574300Y-70895000D01*
D55*
X218386800Y-98220000D02*
X218461800Y-98295000D01*
D53*
X228561800Y-68745000D02*
X228636800Y-68745000D01*
X207961800Y-73115000D02*
X207936800Y-73140000D01*
D54*
X225511800Y-88195000D02*
X225486800Y-88220000D01*
D52*
X196061800Y-81045000D02*
X193936800Y-81045000D01*
D54*
X226361800Y-88220000D02*
X225486800Y-88220000D01*
X224736800Y-81845000D02*
X225424300Y-81845000D01*
D53*
X207011800Y-87545000D02*
X207861800Y-87545000D01*
D55*
X218436800Y-83870000D02*
X218436800Y-85020000D01*
D53*
X193936800Y-81045000D02*
X193936800Y-80370000D01*
X199336800Y-71370000D02*
X198666800Y-71370000D01*
X228586800Y-67820000D02*
X229461800Y-67820000D01*
D55*
X217461800Y-97545000D02*
X217711800Y-97545000D01*
D53*
X212126800Y-55555000D02*
X212136800Y-55545000D01*
D55*
X218386800Y-93870000D02*
X218386800Y-98220000D01*
X218436800Y-98270000D02*
X218461800Y-98295000D01*
D53*
X207961800Y-72445000D02*
X207961800Y-73115000D01*
X193936800Y-70470000D02*
X193936800Y-71345000D01*
X229461800Y-67820000D02*
X229511800Y-67870000D01*
D52*
X189836800Y-81045000D02*
X189836800Y-79695000D01*
D55*
X218386800Y-95470000D02*
X218436800Y-95520000D01*
D54*
X222861800Y-85870000D02*
X223724300Y-85870000D01*
D53*
X197586800Y-87045000D02*
X197561800Y-87020000D01*
X228586800Y-67820000D02*
X229536800Y-68770000D01*
D54*
X227599300Y-92045000D02*
X227586800Y-92057500D01*
D53*
X208311800Y-85620000D02*
X208336800Y-85645000D01*
X208316800Y-57145000D02*
X208316800Y-55565000D01*
X208316800Y-55565000D02*
X208386800Y-55495000D01*
D55*
X217636800Y-84545000D02*
X217961800Y-84545000D01*
D53*
X229511800Y-68745000D02*
X229536800Y-68770000D01*
X228561800Y-68745000D02*
X229511800Y-68745000D01*
X192936800Y-84795000D02*
X192086800Y-84795000D01*
D54*
X226049300Y-81857500D02*
X225436800Y-81857500D01*
D53*
X189836800Y-71845000D02*
X188716800Y-71845000D01*
D52*
X198486800Y-86815000D02*
X198256800Y-87045000D01*
X189836800Y-79695000D02*
X189536800Y-79395000D01*
X198486800Y-84970000D02*
X198486800Y-86815000D01*
D53*
X193936800Y-71345000D02*
X193911800Y-71370000D01*
D55*
X217711800Y-97545000D02*
X218461800Y-98295000D01*
D53*
X190711800Y-75290000D02*
X190716800Y-75295000D01*
D52*
X190716800Y-76675000D02*
X191236800Y-77195000D01*
X198741800Y-71295000D02*
X198486800Y-71550000D01*
D53*
X210856800Y-55550000D02*
X210861800Y-55545000D01*
D54*
X223999300Y-85820000D02*
X223836800Y-85982500D01*
X223724300Y-85870000D02*
X223836800Y-85982500D01*
X224811800Y-85820000D02*
X223999300Y-85820000D01*
X228486800Y-92045000D02*
X227599300Y-92045000D01*
X226086800Y-81895000D02*
X226049300Y-81857500D01*
X226111800Y-81870000D02*
X226086800Y-81895000D01*
D53*
X210856800Y-57145000D02*
X210856800Y-55550000D01*
X209961800Y-73570000D02*
X209961800Y-74410000D01*
X193936800Y-74640000D02*
X193406800Y-74640000D01*
D56*
X226361800Y-68845000D02*
X226261800Y-68745000D01*
D53*
X209961800Y-74410000D02*
X209966800Y-74415000D01*
D55*
X217711800Y-94795000D02*
X218436800Y-95520000D01*
D53*
X198256800Y-87045000D02*
X197586800Y-87045000D01*
D55*
X217661800Y-97545000D02*
X218436800Y-96770000D01*
X218386800Y-93870000D02*
X217461800Y-94795000D01*
D52*
X190716800Y-75295000D02*
X190716800Y-76675000D01*
D53*
X212126800Y-57145000D02*
X212126800Y-55555000D01*
X228636800Y-68745000D02*
X229511800Y-67870000D01*
X188716800Y-71845000D02*
X188666800Y-71795000D01*
D52*
X198486800Y-86840000D02*
X198456800Y-86870000D01*
%TO.N,Net-(U1-VCAP_1)*%
X205349300Y-87295000D02*
X205461800Y-87295000D01*
X204986800Y-86932500D02*
X205349300Y-87295000D01*
X204986800Y-84970000D02*
X204986800Y-86932500D01*
D55*
%TO.N,+3.3V*%
X212586800Y-90545000D02*
X212586800Y-91795000D01*
D52*
X207411800Y-75545000D02*
X207411800Y-74625000D01*
D55*
X215416800Y-91345000D02*
X215866800Y-91795000D01*
X214611800Y-94420000D02*
X214611800Y-91720000D01*
X215866800Y-90545000D02*
X215866800Y-91795000D01*
D53*
X193271800Y-75600000D02*
X193216800Y-75545000D01*
D54*
X224086800Y-93707500D02*
X224086800Y-94445000D01*
D55*
X214236800Y-91345000D02*
X213036800Y-91345000D01*
D52*
X207936800Y-74100000D02*
X208601800Y-74100000D01*
D53*
X189986800Y-82045000D02*
X189986800Y-82780000D01*
D55*
X213386800Y-91345000D02*
X212586800Y-90545000D01*
X213036800Y-91345000D02*
X212586800Y-91795000D01*
D52*
X208601800Y-74100000D02*
X208656800Y-74045000D01*
D53*
X190001800Y-82795000D02*
X190001800Y-83500000D01*
D52*
X199216800Y-87045000D02*
X199216800Y-87725000D01*
D55*
X215486800Y-97420000D02*
X213536800Y-97420000D01*
D52*
X197986800Y-71650000D02*
X197736800Y-71400000D01*
D55*
X214611800Y-91720000D02*
X214236800Y-91345000D01*
D53*
X203193320Y-69295000D02*
X203215060Y-69273260D01*
X195461800Y-70500000D02*
X195486800Y-70475000D01*
D55*
X212586800Y-90545000D02*
X215866800Y-90545000D01*
D52*
X197986800Y-73620000D02*
X197986800Y-71650000D01*
X197736800Y-71295000D02*
X197631800Y-71295000D01*
X197736800Y-71400000D02*
X197736800Y-71295000D01*
D53*
X190001800Y-83500000D02*
X189986800Y-83515000D01*
X199226800Y-68565000D02*
X199236800Y-68555000D01*
D55*
X212586800Y-91795000D02*
X215866800Y-91795000D01*
X214236800Y-91345000D02*
X213386800Y-91345000D01*
D53*
X219124300Y-60045000D02*
X219986800Y-60045000D01*
X195461800Y-71370000D02*
X195461800Y-70500000D01*
D52*
X197631800Y-71295000D02*
X197706800Y-71370000D01*
D53*
X197706800Y-70675000D02*
X197736800Y-70645000D01*
X213396800Y-55635000D02*
X213486800Y-55545000D01*
D55*
X215486800Y-94670000D02*
X213536800Y-94670000D01*
D53*
X197706800Y-71370000D02*
X195461800Y-71370000D01*
D52*
X206036800Y-84970000D02*
X206686800Y-85620000D01*
D53*
X202546800Y-69295000D02*
X203193320Y-69295000D01*
D52*
X198986800Y-86815000D02*
X199216800Y-87045000D01*
D55*
X214511800Y-94795000D02*
X214511800Y-97545000D01*
D52*
X206686800Y-85620000D02*
X206686800Y-86275000D01*
X206686800Y-86275000D02*
X206736800Y-86325000D01*
D55*
X215066800Y-91345000D02*
X215866800Y-90545000D01*
X214236800Y-91345000D02*
X215066800Y-91345000D01*
D52*
X199216800Y-87725000D02*
X199236800Y-87745000D01*
X205486800Y-84970000D02*
X206036800Y-84970000D01*
D55*
X214236800Y-91345000D02*
X215416800Y-91345000D01*
D54*
X224086800Y-94445000D02*
X223986800Y-94545000D01*
D53*
X213396800Y-57145000D02*
X213396800Y-55635000D01*
X199226800Y-69295000D02*
X199226800Y-68565000D01*
D52*
X196061800Y-75545000D02*
X193991800Y-75545000D01*
D53*
X188666800Y-67295000D02*
X189816800Y-67295000D01*
X193936800Y-75600000D02*
X193271800Y-75600000D01*
X189986800Y-82780000D02*
X190001800Y-82795000D01*
D52*
X198986800Y-84970000D02*
X198986800Y-86815000D01*
X207411800Y-74625000D02*
X207936800Y-74100000D01*
D53*
X197706800Y-71370000D02*
X197706800Y-70675000D01*
D52*
%TO.N,+3.3VA*%
X193979765Y-82005000D02*
X193936800Y-82005000D01*
D53*
X191946800Y-82795000D02*
X192736800Y-82005000D01*
X192736800Y-82005000D02*
X193936800Y-82005000D01*
D52*
X196061800Y-81545000D02*
X194439765Y-81545000D01*
X194439765Y-81545000D02*
X193979765Y-82005000D01*
D53*
X190971800Y-82795000D02*
X191946800Y-82795000D01*
D52*
%TO.N,HSE_IN*%
X194628653Y-77895000D02*
X192536800Y-77895000D01*
X192136800Y-78295000D02*
X190536800Y-78295000D01*
X189756800Y-76975000D02*
X189536800Y-77195000D01*
X189756800Y-75295000D02*
X189756800Y-76975000D01*
X192536800Y-77895000D02*
X192136800Y-78295000D01*
X196061800Y-77545000D02*
X194978653Y-77545000D01*
X190536800Y-78295000D02*
X189536800Y-77295000D01*
X194978653Y-77545000D02*
X194628653Y-77895000D01*
X189536800Y-77295000D02*
X189536800Y-77195000D01*
%TO.N,Net-(C12-Pad1)*%
X191336800Y-79295000D02*
X191236800Y-79395000D01*
X192976800Y-79295000D02*
X191336800Y-79295000D01*
X190796800Y-81045000D02*
X190796800Y-79835000D01*
X190796800Y-79835000D02*
X191236800Y-79395000D01*
D55*
%TO.N,BUCK_IN*%
X220986800Y-83795000D02*
X220986800Y-85882500D01*
D54*
X220986800Y-89157500D02*
X220986800Y-87795000D01*
X223311800Y-87795000D02*
X220986800Y-87795000D01*
X223736800Y-88220000D02*
X223311800Y-87795000D01*
X220986800Y-87795000D02*
X220986800Y-86082500D01*
D55*
X220986800Y-85882500D02*
X220886800Y-85982500D01*
X220886800Y-85982500D02*
X221086800Y-86182500D01*
D54*
X220986800Y-86082500D02*
X220886800Y-85982500D01*
%TO.N,BUCK_BST*%
X220036800Y-91432500D02*
X218599300Y-91432500D01*
X218599300Y-91432500D02*
X218236800Y-91070000D01*
%TO.N,BUCK_SW*%
X218599300Y-89157500D02*
X218236800Y-89520000D01*
D55*
X214236800Y-84645000D02*
X214336800Y-84545000D01*
X214236800Y-87245000D02*
X215961800Y-87245000D01*
X215961800Y-87245000D02*
X218236800Y-89520000D01*
X214236800Y-87245000D02*
X214236800Y-84645000D01*
D54*
X220036800Y-89157500D02*
X218599300Y-89157500D01*
D53*
%TO.N,Net-(D1-K)*%
X193049300Y-86332500D02*
X192936800Y-86445000D01*
X195236800Y-86332500D02*
X193049300Y-86332500D01*
D52*
%TO.N,LED_STATUS*%
X196061800Y-83045000D02*
X196061800Y-83932500D01*
X196061800Y-83932500D02*
X195236800Y-84757500D01*
D56*
%TO.N,+5V*%
X225789617Y-70895000D02*
X226386800Y-71492183D01*
D52*
X229636800Y-72995000D02*
X229636800Y-72295000D01*
D56*
X229536800Y-73095000D02*
X229636800Y-72995000D01*
D52*
X230536800Y-71845000D02*
X230086800Y-71845000D01*
X230086800Y-71845000D02*
X229636800Y-72295000D01*
D56*
X226386800Y-73095000D02*
X229536800Y-73095000D01*
X226386800Y-71492183D02*
X226386800Y-73095000D01*
X225299300Y-70895000D02*
X225789617Y-70895000D01*
D52*
X229636800Y-73295000D02*
X229636800Y-72995000D01*
X229636800Y-79382500D02*
X229636800Y-73295000D01*
D55*
%TO.N,Net-(D3-A)*%
X223536800Y-79732500D02*
X223886800Y-79382500D01*
X226336800Y-79382500D02*
X223886800Y-79382500D01*
X223536800Y-81857500D02*
X223536800Y-79732500D01*
D53*
%TO.N,Net-(D4-K)*%
X221599300Y-60082500D02*
X221561800Y-60045000D01*
X221599300Y-62045000D02*
X221599300Y-60082500D01*
D55*
%TO.N,+12V*%
X225974300Y-83732500D02*
X230536800Y-88295000D01*
X224486800Y-83732500D02*
X225974300Y-83732500D01*
D52*
%TO.N,SWDIO*%
X213396800Y-63385000D02*
X213396800Y-61045000D01*
X206535759Y-76545000D02*
X206286800Y-76296041D01*
X206286800Y-70495000D02*
X213396800Y-63385000D01*
X207411800Y-76545000D02*
X206535759Y-76545000D01*
X206286800Y-76296041D02*
X206286800Y-70495000D01*
%TO.N,SWCLK*%
X205486800Y-69295000D02*
X212126800Y-62655000D01*
X212126800Y-62655000D02*
X212126800Y-61045000D01*
X205486800Y-73620000D02*
X205486800Y-69295000D01*
%TO.N,SWO*%
X202486800Y-73620000D02*
X202486800Y-71061474D01*
X210856800Y-62691474D02*
X210856800Y-61045000D01*
X202486800Y-71061474D02*
X210856800Y-62691474D01*
%TO.N,NRST*%
X204986800Y-66795000D02*
X208316800Y-63465000D01*
X200486800Y-78545000D02*
X202486800Y-76545000D01*
X208316800Y-63465000D02*
X208316800Y-61045000D01*
X196061800Y-78545000D02*
X200486800Y-78545000D01*
%TO.N,I2C1_SCL*%
X200986800Y-72545000D02*
X200986800Y-73620000D01*
X201361800Y-69130000D02*
X201526800Y-69295000D01*
X201526800Y-72005000D02*
X201526800Y-69295000D01*
X201361800Y-61745000D02*
X201361800Y-69130000D01*
X201526800Y-72005000D02*
X200986800Y-72545000D01*
%TO.N,I2C1_SDA*%
X200486800Y-69535000D02*
X200246800Y-69295000D01*
X200111800Y-69160000D02*
X200246800Y-69295000D01*
X200486800Y-73620000D02*
X200486800Y-69535000D01*
X200111800Y-61745000D02*
X200111800Y-69160000D01*
%TO.N,USART3_Tx*%
X203986800Y-85846041D02*
X203986800Y-84970000D01*
X201736800Y-88096041D02*
X203986800Y-85846041D01*
X201736800Y-96795000D02*
X201736800Y-88096041D01*
%TO.N,USART3_Rx*%
X204486800Y-86256827D02*
X202986800Y-87756827D01*
X204486800Y-84970000D02*
X204486800Y-86256827D01*
X202986800Y-87756827D02*
X202986800Y-96795000D01*
D57*
%TO.N,USB_CONN_D-*%
X228568051Y-71845000D02*
X227574300Y-71845000D01*
X230373197Y-71095000D02*
X229318051Y-71095000D01*
X229318051Y-71095000D02*
X228568051Y-71845000D01*
%TO.N,USB_CONN_D+*%
X229268070Y-70645019D02*
X230436781Y-70645019D01*
X230436781Y-70645019D02*
X230536800Y-70545000D01*
X227574300Y-69945000D02*
X228568051Y-69945000D01*
X228568051Y-69945000D02*
X229268070Y-70645019D01*
D53*
%TO.N,unconnected-(J5-Shield-Pad6)*%
X231131800Y-72815000D02*
X232106800Y-72815000D01*
X233361800Y-74070000D02*
X233361800Y-66920000D01*
X233361800Y-66920000D02*
X232386800Y-66920000D01*
X232106800Y-72815000D02*
X233361800Y-74070000D01*
X232386800Y-66920000D02*
X231131800Y-68175000D01*
D52*
%TO.N,Net-(SW1-B)*%
X190976800Y-69045000D02*
X189916800Y-69045000D01*
X189916800Y-69045000D02*
X188666800Y-70295000D01*
%TO.N,HSE_OUT*%
X193996800Y-79233959D02*
X193996800Y-79295000D01*
X196061800Y-78045000D02*
X195185759Y-78045000D01*
X195185759Y-78045000D02*
X193996800Y-79233959D01*
D54*
%TO.N,BUCK_EN*%
X222649300Y-89870000D02*
X221936800Y-89157500D01*
X225486800Y-89870000D02*
X222649300Y-89870000D01*
%TO.N,BUCK_FB*%
X225836800Y-92057500D02*
X224086800Y-92057500D01*
X222561800Y-92057500D02*
X221936800Y-91432500D01*
X224086800Y-92057500D02*
X222561800Y-92057500D01*
%TO.N,Net-(R7-Pad2)*%
X227586800Y-93707500D02*
X225836800Y-93707500D01*
D57*
%TO.N,USB_D-*%
X207411800Y-77545000D02*
X208574301Y-77545000D01*
X208574301Y-77545000D02*
X208599301Y-77520000D01*
X214580000Y-77520000D02*
X220980000Y-71120000D01*
X223580549Y-71120000D02*
X224305549Y-71845000D01*
X220980000Y-71120000D02*
X223580549Y-71120000D01*
X224305549Y-71845000D02*
X225299300Y-71845000D01*
X208599301Y-77520000D02*
X214580000Y-77520000D01*
%TO.N,USB_D+*%
X208599301Y-77070000D02*
X214393600Y-77070000D01*
X220793600Y-70670000D02*
X223580549Y-70670000D01*
X223580549Y-70670000D02*
X224305549Y-69945000D01*
X208574301Y-77045000D02*
X208599301Y-77070000D01*
X214393600Y-77070000D02*
X220793600Y-70670000D01*
X224305549Y-69945000D02*
X225299300Y-69945000D01*
X207411800Y-77045000D02*
X208574301Y-77045000D01*
D55*
%TO.N,Net-(F1-Pad2)*%
X221086800Y-81570000D02*
X220986800Y-81670000D01*
X221086800Y-79382500D02*
X221086800Y-81570000D01*
%TD*%
M02*
