%TF.GenerationSoftware,KiCad,Pcbnew,7.0.2*%
%TF.CreationDate,2023-05-29T20:24:48+05:30*%
%TF.ProjectId,STM_32_Board,53544d5f-3332-45f4-926f-6172642e6b69,rev?*%
%TF.SameCoordinates,Original*%
%TF.FileFunction,Copper,L4,Bot*%
%TF.FilePolarity,Positive*%
%FSLAX46Y46*%
G04 Gerber Fmt 4.6, Leading zero omitted, Abs format (unit mm)*
G04 Created by KiCad (PCBNEW 7.0.2) date 2023-05-29 20:24:48*
%MOMM*%
%LPD*%
G01*
G04 APERTURE LIST*
G04 Aperture macros list*
%AMRoundRect*
0 Rectangle with rounded corners*
0 $1 Rounding radius*
0 $2 $3 $4 $5 $6 $7 $8 $9 X,Y pos of 4 corners*
0 Add a 4 corners polygon primitive as box body*
4,1,4,$2,$3,$4,$5,$6,$7,$8,$9,$2,$3,0*
0 Add four circle primitives for the rounded corners*
1,1,$1+$1,$2,$3*
1,1,$1+$1,$4,$5*
1,1,$1+$1,$6,$7*
1,1,$1+$1,$8,$9*
0 Add four rect primitives between the rounded corners*
20,1,$1+$1,$2,$3,$4,$5,0*
20,1,$1+$1,$4,$5,$6,$7,0*
20,1,$1+$1,$6,$7,$8,$9,0*
20,1,$1+$1,$8,$9,$2,$3,0*%
G04 Aperture macros list end*
%TA.AperFunction,ComponentPad*%
%ADD10RoundRect,0.200000X0.200000X0.450000X-0.200000X0.450000X-0.200000X-0.450000X0.200000X-0.450000X0*%
%TD*%
%TA.AperFunction,ComponentPad*%
%ADD11O,0.800000X1.300000*%
%TD*%
%TA.AperFunction,ComponentPad*%
%ADD12C,0.900000*%
%TD*%
%TA.AperFunction,ComponentPad*%
%ADD13C,8.600000*%
%TD*%
%TA.AperFunction,ComponentPad*%
%ADD14RoundRect,0.200000X-0.200000X-0.450000X0.200000X-0.450000X0.200000X0.450000X-0.200000X0.450000X0*%
%TD*%
%TA.AperFunction,ComponentPad*%
%ADD15R,2.400000X2.400000*%
%TD*%
%TA.AperFunction,ComponentPad*%
%ADD16C,2.400000*%
%TD*%
%TA.AperFunction,ComponentPad*%
%ADD17O,1.900000X1.050000*%
%TD*%
%TA.AperFunction,ViaPad*%
%ADD18C,0.800000*%
%TD*%
%TA.AperFunction,Conductor*%
%ADD19C,0.300000*%
%TD*%
G04 APERTURE END LIST*
D10*
%TO.P,J3,1,Pin_1*%
%TO.N,+3.3V*%
X202611800Y-61745000D03*
D11*
%TO.P,J3,2,Pin_2*%
%TO.N,I2C1_SCL*%
X201361800Y-61745000D03*
%TO.P,J3,3,Pin_3*%
%TO.N,I2C1_SDA*%
X200111800Y-61745000D03*
%TO.P,J3,4,Pin_4*%
%TO.N,GND*%
X198861800Y-61745000D03*
%TD*%
D12*
%TO.P,H3,1,1*%
%TO.N,GND*%
X226761800Y-99545000D03*
X227706381Y-97264581D03*
X227706381Y-101825419D03*
X229986800Y-96320000D03*
D13*
X229986800Y-99545000D03*
D12*
X229986800Y-102770000D03*
X232267219Y-97264581D03*
X232267219Y-101825419D03*
X233211800Y-99545000D03*
%TD*%
%TO.P,H4,1,1*%
%TO.N,GND*%
X186261800Y-99545000D03*
X187206381Y-97264581D03*
X187206381Y-101825419D03*
X189486800Y-96320000D03*
D13*
X189486800Y-99545000D03*
D12*
X189486800Y-102770000D03*
X191767219Y-97264581D03*
X191767219Y-101825419D03*
X192711800Y-99545000D03*
%TD*%
%TO.P,H2,1,1*%
%TO.N,GND*%
X226761800Y-60045000D03*
X227706381Y-57764581D03*
X227706381Y-62325419D03*
X229986800Y-56820000D03*
D13*
X229986800Y-60045000D03*
D12*
X229986800Y-63270000D03*
X232267219Y-57764581D03*
X232267219Y-62325419D03*
X233211800Y-60045000D03*
%TD*%
D14*
%TO.P,J4,1,Pin_1*%
%TO.N,+3.3V*%
X200486800Y-96795000D03*
D11*
%TO.P,J4,2,Pin_2*%
%TO.N,USART3_Tx*%
X201736800Y-96795000D03*
%TO.P,J4,3,Pin_3*%
%TO.N,USART3_Rx*%
X202986800Y-96795000D03*
%TO.P,J4,4,Pin_4*%
%TO.N,GND*%
X204236800Y-96795000D03*
%TD*%
D15*
%TO.P,J1,1,Pin_1*%
%TO.N,+12V*%
X230536800Y-88295000D03*
D16*
%TO.P,J1,2,Pin_2*%
%TO.N,GND*%
X230536800Y-84795000D03*
%TD*%
D12*
%TO.P,H1,1,1*%
%TO.N,GND*%
X186261800Y-60045000D03*
X187206381Y-57764581D03*
X187206381Y-62325419D03*
X189486800Y-56820000D03*
D13*
X189486800Y-60045000D03*
D12*
X189486800Y-63270000D03*
X191767219Y-57764581D03*
X191767219Y-62325419D03*
X192711800Y-60045000D03*
%TD*%
D17*
%TO.P,J5,6,Shield*%
%TO.N,unconnected-(J5-Shield-Pad6)*%
X233361800Y-74070000D03*
X233361800Y-66920000D03*
%TD*%
D18*
%TO.N,GND*%
X192061800Y-84820000D03*
X192451161Y-76935106D03*
X188286800Y-79370000D03*
X229536800Y-68770000D03*
X222861800Y-85870000D03*
X228486800Y-92045000D03*
X218436800Y-95520000D03*
X221011800Y-92520000D03*
X224736800Y-81845000D03*
X193961800Y-80345000D03*
X189836800Y-71845000D03*
X219161800Y-62070000D03*
X218486800Y-85070000D03*
X228586800Y-67820000D03*
X226361800Y-88220000D03*
X227636800Y-91220000D03*
X209961800Y-73570000D03*
X218436800Y-96770000D03*
X226261800Y-68745000D03*
X218436800Y-83870000D03*
X207861800Y-87545000D03*
X199336800Y-71370000D03*
X218461800Y-98295000D03*
X228561800Y-68745000D03*
X207961800Y-72445000D03*
X220986800Y-93495000D03*
X224811800Y-85820000D03*
X193936800Y-70470000D03*
X225511800Y-87395000D03*
X208336800Y-85645000D03*
X190711800Y-74570000D03*
X192736800Y-80345000D03*
X208386800Y-55495000D03*
X210861800Y-55545000D03*
X212136800Y-55545000D03*
X193236800Y-74470000D03*
X218386800Y-93870000D03*
X229511800Y-67870000D03*
X197561800Y-87020000D03*
X226111800Y-81845000D03*
%TO.N,+3.3V*%
X208656800Y-74045000D03*
X199236800Y-68555000D03*
X193216800Y-75545000D03*
X213536800Y-94670000D03*
X213486800Y-55545000D03*
X219124300Y-60045000D03*
X206736800Y-86325000D03*
X189816800Y-67295000D03*
X212586800Y-90545000D03*
X215866800Y-90545000D03*
X197736800Y-70645000D03*
X189986800Y-82045000D03*
X203215060Y-69273260D03*
X199236800Y-87745000D03*
X213536800Y-97420000D03*
X189986800Y-83515000D03*
X223986800Y-94545000D03*
X215486800Y-97420000D03*
X195486800Y-70475000D03*
X215866800Y-91795000D03*
X215486800Y-94670000D03*
X212586800Y-91795000D03*
%TO.N,NRST*%
X202486800Y-76545000D03*
X204986800Y-66795000D03*
%TD*%
D19*
%TO.N,NRST*%
X204986800Y-74045000D02*
X204986800Y-66795000D01*
X202486800Y-76545000D02*
X204986800Y-74045000D01*
%TD*%
M02*
